<svg xmlns="http://www.w3.org/2000/svg" width="1440" height="900"><path d="M612,687L680,849L897,722Z" fill="#8db9ed" stroke="#8db9ed" stroke-width="1.51"/><path d="M680,849L1002,889L897,722Z" fill="#79ade9" stroke="#79ade9" stroke-width="1.51"/><path d="M612,687L434,929L680,849Z" fill="#79ace9" stroke="#79ace9" stroke-width="1.51"/><path d="M425,485L423,627L612,687Z" fill="#8dbbed" stroke="#8dbbed" stroke-width="1.51"/><path d="M911,385L665,362L612,687Z" fill="#aecff3" stroke="#aecff3" stroke-width="1.51"/><path d="M897,722L911,385L612,687Z" fill="#99c2ef" stroke="#99c2ef" stroke-width="1.51"/><path d="M1198,640L911,385L897,722Z" fill="#8bbaed" stroke="#8bbaed" stroke-width="1.51"/><path d="M423,627L434,929L612,687Z" fill="#7aafea" stroke="#7aafea" stroke-width="1.51"/><path d="M680,849L872,1131L1002,889Z" fill="#70a5e7" stroke="#70a5e7" stroke-width="1.51"/><path d="M452,1096L712,1126L680,849Z" fill="#73a6e7" stroke="#73a6e7" stroke-width="1.51"/><path d="M665,362L425,485L612,687Z" fill="#9fc6f0" stroke="#9fc6f0" stroke-width="1.51"/><path d="M286,435L331,700L423,627Z" fill="#82b5ec" stroke="#82b5ec" stroke-width="1.51"/><path d="M423,627L331,700L434,929Z" fill="#71aae9" stroke="#71aae9" stroke-width="1.51"/><path d="M712,1126L872,1131L680,849Z" fill="#79aae8" stroke="#79aae8" stroke-width="1.51"/><path d="M1002,889L1198,640L897,722Z" fill="#72abe9" stroke="#72abe9" stroke-width="1.51"/><path d="M1190,974L1198,640L1002,889Z" fill="#5e9ee5" stroke="#5e9ee5" stroke-width="1.51"/><path d="M434,929L452,1096L680,849Z" fill="#6aa2e6" stroke="#6aa2e6" stroke-width="1.51"/><path d="M237,933L452,1096L434,929Z" fill="#5b9be4" stroke="#5b9be4" stroke-width="1.51"/><path d="M665,362L525,292L425,485Z" fill="#9cc4f0" stroke="#9cc4f0" stroke-width="1.51"/><path d="M694,152L525,292L665,362Z" fill="#94bfef" stroke="#94bfef" stroke-width="1.51"/><path d="M872,1131L1190,974L1002,889Z" fill="#5f9de5" stroke="#5f9de5" stroke-width="1.51"/><path d="M1198,640L1221,527L911,385Z" fill="#8bbaed" stroke="#8bbaed" stroke-width="1.51"/><path d="M1498,747L1221,527L1198,640Z" fill="#6ba5e8" stroke="#6ba5e8" stroke-width="1.51"/><path d="M525,292L286,435L425,485Z" fill="#94c0ee" stroke="#94c0ee" stroke-width="1.51"/><path d="M425,485L286,435L423,627Z" fill="#8fbded" stroke="#8fbded" stroke-width="1.51"/><path d="M-21,1008L237,933L-129,729Z" fill="#3588df" stroke="#3588df" stroke-width="1.51"/><path d="M331,700L237,933L434,929Z" fill="#5d9de5" stroke="#5d9de5" stroke-width="1.51"/><path d="M1221,527L1054,238L911,385Z" fill="#8fbded" stroke="#8fbded" stroke-width="1.51"/><path d="M911,385L694,152L665,362Z" fill="#9cc4f0" stroke="#9cc4f0" stroke-width="1.51"/><path d="M940,58L694,152L911,385Z" fill="#88b8ed" stroke="#88b8ed" stroke-width="1.51"/><path d="M525,292L257,173L286,435Z" fill="#81b5ec" stroke="#81b5ec" stroke-width="1.51"/><path d="M955,1458L872,1131L735,1504Z" fill="#70a5e7" stroke="#70a5e7" stroke-width="1.51"/><path d="M955,1458L1117,1297L872,1131Z" fill="#639fe6" stroke="#639fe6" stroke-width="1.51"/><path d="M872,1131L1117,1297L1190,974Z" fill="#5b9ce5" stroke="#5b9ce5" stroke-width="1.51"/><path d="M1054,238L940,58L911,385Z" fill="#82b5ec" stroke="#82b5ec" stroke-width="1.51"/><path d="M1117,1297L1401,1039L1190,974Z" fill="#4991e2" stroke="#4991e2" stroke-width="1.51"/><path d="M1190,974L1498,747L1198,640Z" fill="#5699e4" stroke="#5699e4" stroke-width="1.51"/><path d="M430,-57L525,292L694,152Z" fill="#7cb0ea" stroke="#7cb0ea" stroke-width="1.51"/><path d="M430,-57L257,173L525,292Z" fill="#70a9e8" stroke="#70a9e8" stroke-width="1.51"/><path d="M-129,729L237,933L331,700Z" fill="#5699e4" stroke="#5699e4" stroke-width="1.51"/><path d="M1401,1039L1498,747L1190,974Z" fill="#398ae0" stroke="#398ae0" stroke-width="1.51"/><path d="M1221,527L1436,373L1054,238Z" fill="#82b2eb" stroke="#82b2eb" stroke-width="1.51"/><path d="M1054,238L1164,22L940,58Z" fill="#6ba6e8" stroke="#6ba6e8" stroke-width="1.51"/><path d="M452,1096L417,1406L712,1126Z" fill="#6aa2e6" stroke="#6aa2e6" stroke-width="1.51"/><path d="M237,933L233,1262L452,1096Z" fill="#5498e3" stroke="#5498e3" stroke-width="1.51"/><path d="M233,1262L417,1406L452,1096Z" fill="#599be4" stroke="#599be4" stroke-width="1.51"/><path d="M735,1504L872,1131L712,1126Z" fill="#77a9e8" stroke="#77a9e8" stroke-width="1.51"/><path d="M1430,1418L1536,1151L1401,1039Z" fill="#2e86de" stroke="#2e86de" stroke-width="1.51"/><path d="M1498,747L1436,373L1221,527Z" fill="#72a7e8" stroke="#72a7e8" stroke-width="1.51"/><path d="M417,1406L735,1504L712,1126Z" fill="#73a7e8" stroke="#73a7e8" stroke-width="1.51"/><path d="M1436,373L1275,110L1054,238Z" fill="#6ba6e8" stroke="#6ba6e8" stroke-width="1.51"/><path d="M1275,110L1164,22L1054,238Z" fill="#63a1e6" stroke="#63a1e6" stroke-width="1.51"/><path d="M237,933L-21,1008L233,1262Z" fill="#438ee1" stroke="#438ee1" stroke-width="1.51"/><path d="M-129,729L331,700L286,435Z" fill="#6fa8e8" stroke="#6fa8e8" stroke-width="1.51"/><path d="M730,-146L694,152L940,58Z" fill="#79aae8" stroke="#79aae8" stroke-width="1.51"/><path d="M730,-146L430,-57L694,152Z" fill="#73a6e8" stroke="#73a6e8" stroke-width="1.51"/><path d="M1678,250L1423,202L1436,373Z" fill="#619ee5" stroke="#619ee5" stroke-width="1.51"/><path d="M1436,373L1423,202L1275,110Z" fill="#5f9ee5" stroke="#5f9ee5" stroke-width="1.51"/><path d="M1275,110L1455,-84L1164,22Z" fill="#458fe1" stroke="#458fe1" stroke-width="1.51"/><path d="M817,-333L730,-146L954,-341Z" fill="#72a6e7" stroke="#72a6e7" stroke-width="1.51"/><path d="M-99,392L-129,729L286,435Z" fill="#74a7e8" stroke="#74a7e8" stroke-width="1.51"/><path d="M1401,1039L1683,1049L1498,747Z" fill="#2e86de" stroke="#2e86de" stroke-width="1.51"/><path d="M1430,1418L1401,1039L1117,1297Z" fill="#408de0" stroke="#408de0" stroke-width="1.51"/><path d="M257,173L20,205L286,435Z" fill="#70a9e8" stroke="#70a9e8" stroke-width="1.51"/><path d="M142,13L20,205L257,173Z" fill="#589ae4" stroke="#589ae4" stroke-width="1.51"/><path d="M20,205L-99,392L286,435Z" fill="#72a8e8" stroke="#72a8e8" stroke-width="1.51"/><path d="M-299,1169L-24,1233L-21,1008Z" fill="#2e86de" stroke="#2e86de" stroke-width="1.51"/><path d="M-21,1008L-24,1233L233,1262Z" fill="#3889df" stroke="#3889df" stroke-width="1.51"/><path d="M233,1262L150,1508L417,1406Z" fill="#5095e3" stroke="#5095e3" stroke-width="1.51"/><path d="M430,-57L142,13L257,173Z" fill="#579ae4" stroke="#579ae4" stroke-width="1.51"/><path d="M-295,536L-251,622L-99,392Z" fill="#73a6e7" stroke="#73a6e7" stroke-width="1.51"/><path d="M184,-224L142,13L430,-57Z" fill="#4e94e2" stroke="#4e94e2" stroke-width="1.51"/><path d="M735,1504L1174,1561L955,1458Z" fill="#66a0e6" stroke="#66a0e6" stroke-width="1.51"/><path d="M955,1458L1174,1561L1117,1297Z" fill="#599be4" stroke="#599be4" stroke-width="1.51"/><path d="M-129,729L-184,912L-21,1008Z" fill="#3287df" stroke="#3287df" stroke-width="1.51"/><path d="M-251,622L-184,912L-129,729Z" fill="#4c93e2" stroke="#4c93e2" stroke-width="1.51"/><path d="M1498,747L1716,616L1436,373Z" fill="#69a1e6" stroke="#69a1e6" stroke-width="1.51"/><path d="M1683,1049L1716,616L1498,747Z" fill="#438fe1" stroke="#438fe1" stroke-width="1.51"/><path d="M1174,1561L1430,1418L1117,1297Z" fill="#4891e2" stroke="#4891e2" stroke-width="1.51"/><path d="M1789,1107L1683,1049L1536,1151Z" fill="#2e86de" stroke="#2e86de" stroke-width="1.51"/><path d="M1536,1151L1683,1049L1401,1039Z" fill="#2e86de" stroke="#2e86de" stroke-width="1.51"/><path d="M417,1406L150,1508L735,1504Z" fill="#619ee5" stroke="#619ee5" stroke-width="1.51"/><path d="M735,1504L150,1508L1174,1561Z" fill="#79aae8" stroke="#79aae8" stroke-width="1.51"/><path d="M76,1501L150,1508L233,1262Z" fill="#438fe1" stroke="#438fe1" stroke-width="1.51"/><path d="M-99,392L-251,622L-129,729Z" fill="#68a1e6" stroke="#68a1e6" stroke-width="1.51"/><path d="M-295,536L-99,392L-325,184Z" fill="#70a5e7" stroke="#70a5e7" stroke-width="1.51"/><path d="M-241,1364L76,1501L-24,1233Z" fill="#2e86de" stroke="#2e86de" stroke-width="1.51"/><path d="M-24,1233L76,1501L233,1262Z" fill="#3c8be0" stroke="#3c8be0" stroke-width="1.51"/><path d="M1731,363L1678,250L1436,373Z" fill="#6aa2e6" stroke="#6aa2e6" stroke-width="1.51"/><path d="M1423,202L1455,-84L1275,110Z" fill="#4690e1" stroke="#4690e1" stroke-width="1.51"/><path d="M1716,616L1731,363L1436,373Z" fill="#7cabe9" stroke="#7cabe9" stroke-width="1.51"/><path d="M730,-146L421,-287L430,-57Z" fill="#6aa2e6" stroke="#6aa2e6" stroke-width="1.51"/><path d="M954,-341L730,-146L940,58Z" fill="#6ea4e7" stroke="#6ea4e7" stroke-width="1.51"/><path d="M954,-341L940,58L1164,22Z" fill="#5f9ee5" stroke="#5f9ee5" stroke-width="1.51"/><path d="M817,-333L421,-287L730,-146Z" fill="#76a8e8" stroke="#76a8e8" stroke-width="1.51"/><path d="M-251,622L-299,1169L-184,912Z" fill="#2e86de" stroke="#2e86de" stroke-width="1.51"/><path d="M-325,184L-99,392L20,205Z" fill="#5f9de5" stroke="#5f9de5" stroke-width="1.51"/><path d="M1753,60L1455,-84L1423,202Z" fill="#3c8be0" stroke="#3c8be0" stroke-width="1.51"/><path d="M1269,-285L954,-341L1164,22Z" fill="#5498e3" stroke="#5498e3" stroke-width="1.51"/><path d="M-136,-118L-325,184L20,205Z" fill="#428ee1" stroke="#428ee1" stroke-width="1.51"/><path d="M421,-287L184,-224L430,-57Z" fill="#579ae4" stroke="#579ae4" stroke-width="1.51"/><path d="M1777,1345L1789,1107L1536,1151Z" fill="#2e86de" stroke="#2e86de" stroke-width="1.51"/><path d="M1683,1049L1789,1107L1716,616Z" fill="#2e86de" stroke="#2e86de" stroke-width="1.51"/><path d="M1716,616L1789,1107L1731,363Z" fill="#5699e4" stroke="#5699e4" stroke-width="1.51"/><path d="M1455,-84L1269,-285L1164,22Z" fill="#428ee1" stroke="#428ee1" stroke-width="1.51"/><path d="M-184,912L-299,1169L-21,1008Z" fill="#2e86de" stroke="#2e86de" stroke-width="1.51"/><path d="M-295,536L-299,1169L-251,622Z" fill="#4891e2" stroke="#4891e2" stroke-width="1.51"/><path d="M-299,1169L-241,1364L-24,1233Z" fill="#2e86de" stroke="#2e86de" stroke-width="1.51"/><path d="M1455,-84L1428,-247L1269,-285Z" fill="#3789df" stroke="#3789df" stroke-width="1.51"/><path d="M1772,-200L1428,-247L1455,-84Z" fill="#2e86de" stroke="#2e86de" stroke-width="1.51"/><path d="M1430,1418L1777,1345L1536,1151Z" fill="#2e86de" stroke="#2e86de" stroke-width="1.51"/><path d="M1174,1561L1777,1345L1430,1418Z" fill="#2e86de" stroke="#2e86de" stroke-width="1.51"/><path d="M1678,250L1753,60L1423,202Z" fill="#5096e3" stroke="#5096e3" stroke-width="1.51"/><path d="M1731,363L1753,60L1678,250Z" fill="#599be4" stroke="#599be4" stroke-width="1.51"/><path d="M1789,1107L1753,60L1731,363Z" fill="#73a7e8" stroke="#73a7e8" stroke-width="1.51"/><path d="M-295,536L-325,184L-299,1169Z" fill="#619ee5" stroke="#619ee5" stroke-width="1.51"/><path d="M-136,-118L20,205L142,13Z" fill="#3789df" stroke="#3789df" stroke-width="1.51"/><path d="M184,-224L-136,-118L142,13Z" fill="#3889df" stroke="#3889df" stroke-width="1.51"/><path d="M184,-224L-19,-315L-136,-118Z" fill="#3086de" stroke="#3086de" stroke-width="1.51"/><path d="M-136,-118L-312,-67L-325,184Z" fill="#2e86de" stroke="#2e86de" stroke-width="1.51"/><path d="M421,-287L-19,-315L184,-224Z" fill="#4891e2" stroke="#4891e2" stroke-width="1.51"/><path d="M817,-333L-19,-315L421,-287Z" fill="#5e9de5" stroke="#5e9de5" stroke-width="1.51"/><path d="M954,-341L-19,-315L817,-333Z" fill="#70a5e7" stroke="#70a5e7" stroke-width="1.51"/><path d="M-377,-250L-312,-67L-136,-118Z" fill="#2e86de" stroke="#2e86de" stroke-width="1.51"/><path d="M1753,60L1772,-200L1455,-84Z" fill="#2e86de" stroke="#2e86de" stroke-width="1.51"/><path d="M1428,-247L1772,-200L1269,-285Z" fill="#2e86de" stroke="#2e86de" stroke-width="1.51"/><path d="M1269,-285L1772,-200L954,-341Z" fill="#3d8ce0" stroke="#3d8ce0" stroke-width="1.51"/><path d="M1789,1107L1772,-200L1753,60Z" fill="#69a2e6" stroke="#69a2e6" stroke-width="1.51"/><path d="M-19,-315L-377,-250L-136,-118Z" fill="#2e86de" stroke="#2e86de" stroke-width="1.51"/><path d="M-312,-67L-377,-250L-325,184Z" fill="#2e86de" stroke="#2e86de" stroke-width="1.51"/><path d="M-325,184L-377,-250L-299,1169Z" fill="#70a5e7" stroke="#70a5e7" stroke-width="1.51"/></svg>