<?xml version="1.0" standalone="no"?>
<!DOCTYPE svg PUBLIC "-//W3C//DTD SVG 20010904//EN"
 "http://www.w3.org/TR/2001/REC-SVG-20010904/DTD/svg10.dtd">
<svg version="1.0" xmlns="http://www.w3.org/2000/svg"
 width="1000.000000pt" height="1000.000000pt" viewBox="0 0 1000.000000 1000.000000"
 preserveAspectRatio="xMidYMid meet">
<metadata>
Created by potrace 1.11, written by Peter Selinger 2001-2013
</metadata>
<g transform="translate(0.000000,1000.000000) scale(0.100000,-0.100000)"
fill="#000000" stroke="none">
<path d="M4695 9450 c-836 -51 -1475 -396 -1888 -1020 -191 -289 -310 -637
-358 -1045 -15 -132 -15 -465 0 -590 65 -522 255 -931 593 -1279 l103 -107 -4
-280 c-9 -731 95 -1264 349 -1784 238 -487 545 -782 967 -928 393 -137 892
-130 1259 17 429 174 761 529 964 1034 21 51 40 96 44 99 9 10 36 -62 69 -187
30 -112 31 -121 31 -345 1 -188 -2 -245 -18 -315 -30 -139 -65 -239 -124 -354
-153 -300 -412 -531 -742 -661 -136 -54 -184 -68 -345 -99 -445 -85 -913 -53
-1297 90 -478 177 -853 507 -1040 914 -108 233 -194 581 -218 876 -15 175 -52
267 -142 350 -177 164 -454 156 -614 -18 -95 -102 -117 -170 -116 -353 4 -529
124 -1058 335 -1485 224 -453 595 -848 1022 -1088 515 -290 1198 -411 1900
-336 650 68 1157 295 1555 694 347 347 597 826 685 1310 44 244 50 307 50 565
0 260 -7 340 -51 567 -146 759 -662 1353 -1462 1682 -300 124 -604 223 -1287
421 -212 61 -470 146 -630 207 -175 67 -395 169 -395 184 0 6 18 51 39 100
155 348 348 564 625 699 262 128 599 159 871 80 202 -59 371 -179 511 -364
108 -142 239 -432 293 -646 27 -105 117 -200 214 -226 93 -25 224 14 283 84
81 97 90 173 39 357 -152 553 -395 928 -758 1173 -533 359 -1309 340 -1887
-46 -256 -170 -495 -448 -644 -745 -15 -29 -31 -50 -36 -47 -5 3 -23 41 -40
86 -125 324 -112 724 34 1024 217 448 652 692 1313 737 379 26 747 -31 1019
-157 489 -227 762 -667 850 -1369 27 -213 44 -278 93 -349 159 -231 479 -261
677 -63 113 113 143 219 125 428 -35 389 -45 452 -106 698 -142 568 -463 1048
-910 1361 -375 263 -853 416 -1400 449 -184 11 -219 11 -400 0z m-883 -4441
c228 -101 548 -216 898 -324 579 -178 968 -310 1215 -410 126 -52 345 -165
345 -180 0 -26 -71 -268 -103 -352 -132 -341 -335 -582 -608 -718 -155 -79
-313 -115 -493 -115 -333 0 -614 121 -841 362 -313 331 -467 795 -505 1523
-11 214 -12 255 -5 255 2 0 46 -19 97 -41z"/>
</g>
</svg>
