<?xml version="1.0" standalone="no"?>
<!DOCTYPE svg PUBLIC "-//W3C//DTD SVG 20010904//EN"
 "http://www.w3.org/TR/2001/REC-SVG-20010904/DTD/svg10.dtd">
<svg version="1.0" xmlns="http://www.w3.org/2000/svg"
 width="1000.000000pt" height="1000.000000pt" viewBox="0 0 1000.000000 1000.000000"
 preserveAspectRatio="xMidYMid meet">
<metadata>
Created by potrace 1.11, written by Peter Selinger 2001-2013
</metadata>
<g transform="translate(0.000000,1000.000000) scale(0.100000,-0.100000)"
fill="#000000" stroke="none">
<path d="M1575 9994 c-16 -2 -77 -9 -135 -15 -576 -60 -1077 -306 -1295 -634
-68 -101 -96 -166 -124 -277 l-21 -87 0 -3981 0 -3981 21 -87 c28 -111 56
-176 124 -277 97 -146 290 -307 487 -406 227 -114 460 -182 775 -226 121 -17
323 -18 3593 -18 3270 0 3472 1 3593 18 315 44 548 112 775 226 197 99 390
260 487 406 68 101 96 166 124 277 l21 87 0 3981 0 3981 -21 87 c-28 111 -56
176 -124 277 -185 278 -589 507 -1060 599 -271 54 -8 50 -3745 52 -1895 0
-3458 0 -3475 -2z m3621 -534 c602 -47 1083 -223 1479 -543 101 -82 282 -269
359 -370 282 -377 457 -846 510 -1367 37 -361 33 -439 -27 -552 -138 -265
-494 -318 -706 -106 -87 87 -122 174 -141 358 -53 500 -198 867 -442 1126
-239 252 -571 402 -977 444 -131 13 -428 13 -562 0 -494 -49 -859 -229 -1091
-540 -101 -135 -153 -248 -201 -439 -29 -118 -32 -441 -4 -569 21 -96 56 -201
85 -257 l20 -40 17 30 c211 384 386 588 666 777 93 62 310 169 411 203 436
144 923 117 1301 -71 373 -185 662 -528 831 -986 37 -100 109 -344 121 -409
17 -91 -35 -204 -120 -264 -155 -111 -376 -32 -434 155 -125 404 -220 594
-386 769 -137 144 -276 228 -461 278 -90 24 -115 27 -284 27 -154 0 -202 -4
-288 -22 -384 -83 -672 -327 -866 -732 -81 -170 -81 -162 1 -203 252 -127 529
-223 1263 -438 305 -89 699 -219 889 -293 289 -114 501 -229 709 -385 533
-401 822 -927 892 -1620 13 -132 13 -439 0 -572 -46 -465 -191 -875 -441
-1244 -230 -339 -524 -598 -884 -778 -510 -255 -1207 -345 -1900 -246 -593 84
-1087 324 -1486 719 -187 186 -331 376 -456 605 -234 425 -369 983 -376 1552
-2 154 0 173 21 224 50 126 151 223 274 266 71 24 205 24 276 0 79 -28 167
-92 212 -154 57 -80 80 -149 91 -277 29 -333 124 -707 240 -937 93 -187 267
-403 433 -538 240 -196 563 -350 871 -414 198 -41 297 -51 525 -50 585 1 1008
149 1321 462 167 168 275 346 338 559 47 161 56 230 55 447 0 179 -3 211 -26
310 -31 130 -67 230 -78 218 -5 -4 -23 -44 -40 -88 -43 -111 -139 -298 -203
-397 -193 -299 -455 -517 -771 -642 -214 -86 -352 -110 -631 -110 -250 0 -399
21 -590 85 -436 144 -746 435 -990 928 -254 512 -370 1121 -352 1836 l7 231
-91 89 c-309 306 -515 703 -588 1132 -69 407 -46 846 64 1218 249 848 944
1438 1850 1574 260 39 519 50 761 31z"/>
<path d="M3764 4883 c28 -735 167 -1203 463 -1554 159 -190 359 -316 600 -380
100 -27 344 -37 464 -20 484 70 851 458 1004 1060 14 55 25 104 25 110 0 15
-129 88 -252 142 -225 100 -647 246 -1218 423 -463 143 -718 234 -1009 360
l-84 37 7 -178z"/>
</g>
</svg>
