<?xml version="1.0" standalone="no"?>
<!DOCTYPE svg PUBLIC "-//W3C//DTD SVG 20010904//EN"
 "http://www.w3.org/TR/2001/REC-SVG-20010904/DTD/svg10.dtd">
<svg version="1.0" xmlns="http://www.w3.org/2000/svg"
 width="1000.000000pt" height="1000.000000pt" viewBox="0 0 1000.000000 1000.000000"
 preserveAspectRatio="xMidYMid meet">
<metadata>
Created by potrace 1.11, written by Peter Selinger 2001-2013
</metadata>
<g transform="translate(0.000000,1000.000000) scale(0.100000,-0.100000)"
fill="#000000" stroke="none">
<path d="M1575 9994 c-16 -2 -77 -9 -135 -15 -474 -50 -888 -218 -1154 -469
-138 -131 -220 -267 -265 -438 l-21 -83 0 -3989 0 -3989 21 -83 c59 -229 206
-421 442 -579 253 -169 547 -271 944 -326 121 -17 323 -18 3593 -18 3270 0
3472 1 3593 18 397 55 691 157 944 326 236 158 383 350 442 579 l21 83 0 3989
0 3989 -21 83 c-45 173 -130 312 -273 446 -216 201 -542 354 -911 426 -271 54
-8 50 -3745 52 -1895 0 -3458 0 -3475 -2z m3776 -548 c627 -76 1131 -311 1514
-708 341 -352 554 -796 649 -1349 32 -183 48 -359 50 -524 1 -114 -2 -137 -22
-187 -47 -117 -144 -213 -260 -259 -82 -33 -232 -33 -314 0 -116 46 -216 145
-257 256 -21 55 -29 101 -51 285 -30 248 -96 488 -186 679 -207 437 -566 699
-1084 793 -148 26 -502 36 -687 19 -425 -40 -753 -174 -980 -399 -191 -189
-294 -388 -338 -651 -31 -181 -12 -458 41 -626 26 -81 66 -165 76 -159 4 3 22
33 39 67 127 250 339 506 549 663 252 187 484 285 805 340 148 25 424 23 575
-4 559 -101 991 -473 1226 -1055 49 -121 133 -391 149 -479 17 -90 -38 -208
-124 -266 -155 -106 -374 -25 -430 158 -127 419 -226 608 -415 796 -154 153
-305 232 -515 268 -181 31 -443 12 -613 -44 -320 -106 -571 -343 -742 -700
-83 -174 -84 -161 21 -213 203 -102 573 -234 1023 -363 530 -153 879 -267
1150 -376 261 -105 411 -185 605 -322 541 -381 841 -875 942 -1551 26 -173 25
-640 -1 -810 -49 -326 -125 -567 -266 -844 -129 -254 -279 -460 -471 -646
-461 -446 -1039 -666 -1824 -691 -661 -22 -1269 129 -1739 433 -199 128 -445
350 -590 533 -324 405 -531 915 -605 1490 -30 231 -46 544 -31 613 65 316 436
459 691 267 113 -85 165 -190 180 -364 29 -337 124 -705 242 -941 247 -494
780 -862 1404 -969 288 -50 647 -42 947 20 329 69 585 202 797 413 206 206
327 439 380 731 21 115 19 442 -4 550 -23 107 -78 274 -87 263 -3 -4 -19 -42
-35 -83 -15 -41 -54 -127 -85 -191 -114 -228 -206 -358 -364 -514 -136 -134
-253 -218 -411 -296 -253 -124 -431 -162 -750 -163 -176 0 -231 4 -340 23
-565 100 -947 405 -1238 987 -255 513 -374 1131 -353 1844 l6 225 -90 90
c-334 330 -532 737 -606 1240 -25 165 -25 538 0 720 71 528 269 948 616 1309
347 360 821 589 1380 666 238 32 608 35 851 6z"/>
<path d="M3764 4878 c15 -415 60 -700 153 -983 142 -432 425 -768 757 -896
172 -66 211 -73 441 -73 200 0 214 1 300 27 383 117 655 392 813 823 36 97 92
295 92 323 0 15 -130 88 -255 143 -225 100 -615 236 -1170 408 -511 158 -756
245 -1054 374 l-84 37 7 -183z"/>
</g>
</svg>
